<svg id="Camada_1" data-name="Camada 1" xmlns="http://www.w3.org/2000/svg" viewBox="0 0 1000 1000"><title>willzlogo</title><path d="M657.72,492.86a17.65,17.65,0,0,1,3.85,14.33q-4.27-16.86-21.12-21.12a18.67,18.67,0,0,1,12.78,2.8q-1.56-2.89-2.74-5.71c-7.64-18.13-3.76-33.07-.63-40.61l-15.22-6.31c-7.73,18.65-23.71,27-38.09,30.63A17.59,17.59,0,0,1,606.2,476c-8.67-7.7-18.41-9.64-29.33-5.68a18.7,18.7,0,0,1,14.85-4.69A24.26,24.26,0,1,0,576,509.8c.63.06,1.27.1,1.91.1a25.1,25.1,0,0,0,2.62-.14,24.35,24.35,0,0,0,13.72,12,17.49,17.49,0,0,1-2.39-12.26q4.29,16.86,21.13,21.12a18.85,18.85,0,0,1-16.64-6.07,24,24,0,0,0,22,27.63c.66.05,1.33.1,2,.1A24.27,24.27,0,0,0,643,537a24.27,24.27,0,1,0,14.77-44.09Zm-48.26,21c-9.8-7.27-10.22-22.68,0-29.87C603.53,494,603.5,503.89,609.46,513.86Z"/><path d="M699.17,311.46a6,6,0,0,0-7.78-3.22c-19.82,8.2-38.56,17-50.31,34.09-6.19,9-10,19.67-12.14,30.64-13.4,6.53-26.7,33.46-26.7,33.46s7.94,2.48,15.39,4.5A103.79,103.79,0,0,0,628,413.32c.53,4.07,1.18,8,2,11.53a6,6,0,0,0,3.52,4.21l21.14,8.75a6,6,0,0,0,4.56,0c.3-.12,7.23-4.71,10.47-7.23,1,.75,2.36,1.65,3.93,2.63,7.3,4.52,19.13,10.72,19.13,10.72s9.65-28.44,4.78-42.53c6.29-9.26,11.11-19.49,13.1-30.25C714.39,350.75,707,330.47,699.17,311.46Zm-25.83,62.05a11.17,11.17,0,1,1,11.16-11.17A11.17,11.17,0,0,1,673.34,373.51Z"/><path d="M628.55,564.38a31.4,31.4,0,0,1-8.62,1.24c-18.7,0-32.55-15.29-33.36-33.37a28.24,28.24,0,0,1,1.31-9.86l-.94-.19-15.23,36.22-49.1-113.21c-16.8-33.86-46.62-42.87-86.25-47L465,461.85l-41.3,96.57L374.64,445.21c-16.81-33.86-46.63-42.87-86.25-47L359.58,556.3h0l59.65,135.91L461,606.64h0s21.47-44.13,35.83-74.17l10.79,24-.37-.15L566.9,692.21l41.75-85.57H609s8.14-17.38,19.74-42.22Z"/></svg>